<svg xmlns="http://www.w3.org/2000/svg" width="40.909" height="40.909" viewBox="0 0 40.909 40.909"><g transform="translate(-69.534 -54.5)"><rect width="40" height="40" rx="5" transform="translate(69.989 54.989)" fill="#ebebeb" opacity="0"/><path d="M3050,248v39.909" transform="translate(-2954.211 -193)" fill="none" stroke="#2991dd" stroke-linecap="round" stroke-width="1"/><path d="M0,0V39.909" transform="translate(109.943 80.755) rotate(90)" fill="none" stroke="#2991dd" stroke-linecap="round" stroke-width="1"/><path d="M0,0V39.909" transform="translate(109.943 69.154) rotate(90)" fill="none" stroke="#2991dd" stroke-linecap="round" stroke-width="1"/><path d="M3050,248v39.909" transform="translate(-2965.812 -193)" fill="none" stroke="#2991dd" stroke-linecap="round" stroke-width="1"/><g transform="translate(73.989 58.989)" fill="#23262f" stroke="#2991dd" stroke-width="1"><rect width="32" height="32" rx="5" stroke="none"/><rect x="0.5" y="0.5" width="31" height="31" rx="4.5" fill="none"/></g><g transform="translate(84.989 73.989)" fill="#23262f" stroke="#2991dd" stroke-width="1"><rect width="10" height="10" rx="2" stroke="none"/><rect x="0.5" y="0.5" width="9" height="9" rx="1.5" fill="none"/></g><g transform="translate(84.989 64.989)" fill="#23262f" stroke="#2991dd" stroke-width="1"><rect width="10" height="10" rx="2" stroke="none"/><rect x="0.5" y="0.5" width="9" height="9" rx="1.5" fill="none"/></g></g></svg>